REM DIRINDEX 1\2,1\3,1\4,1\5,1\6,1\7,1\8
REM DIRNAME folder01,folder02,folder03,folder04,folder05,folder06,folder07,folder08
TITLE ""
FILE "22_Ch5_Housework_Behavier.mp3" MP3
  TRACK 01 AUDIO
    TITLE "0:"
    INDEX 01 00:00:00
  TRACK 02 AUDIO
    TITLE "8:cjc152_1161"
    INDEX 01 00:00:25
  TRACK 03 AUDIO
    TITLE "0:"
    INDEX 01 00:03:02
  TRACK 04 AUDIO
    TITLE "8:cjc152_1162"
    INDEX 01 00:03:59
  TRACK 05 AUDIO
    TITLE "0:"
    INDEX 01 00:05:18
  TRACK 06 AUDIO
    TITLE "3:cjc152_1163"
    INDEX 01 00:06:12
  TRACK 07 AUDIO
    TITLE "0:"
    INDEX 01 00:09:14
  TRACK 08 AUDIO
    TITLE "3:cjc152_1164"
    INDEX 01 00:10:06
  TRACK 09 AUDIO
    TITLE "0:"
    INDEX 01 00:12:60
  TRACK 10 AUDIO
    TITLE "3:cjc152_1165"
    INDEX 01 00:14:41
  TRACK 11 AUDIO
    TITLE "0:"
    INDEX 01 00:16:26
  TRACK 12 AUDIO
    TITLE "3:cjc152_1166"
    INDEX 01 00:17:14
  TRACK 13 AUDIO
    TITLE "0:"
    INDEX 01 00:19:20
  TRACK 14 AUDIO
    TITLE "3:cjc152_1167"
    INDEX 01 00:21:06
  TRACK 15 AUDIO
    TITLE "0:"
    INDEX 01 00:23:16
  TRACK 16 AUDIO
    TITLE "3:cjc152_1168"
    INDEX 01 00:24:10
  TRACK 17 AUDIO
    TITLE "0:"
    INDEX 01 00:26:71
  TRACK 18 AUDIO
    TITLE "3:cjc152_1169"
    INDEX 01 00:28:55
  TRACK 19 AUDIO
    TITLE "0:"
    INDEX 01 00:31:02
  TRACK 20 AUDIO
    TITLE "3:cjc152_1170"
    INDEX 01 00:31:67
  TRACK 21 AUDIO
    TITLE "0:"
    INDEX 01 00:34:38
  TRACK 22 AUDIO
    TITLE "3:cjc152_1171"
    INDEX 01 00:36:23
  TRACK 23 AUDIO
    TITLE "0:"
    INDEX 01 00:37:52
  TRACK 24 AUDIO
    TITLE "3:cjc152_1172"
    INDEX 01 00:38:43
  TRACK 25 AUDIO
    TITLE "0:"
    INDEX 01 00:40:24
  TRACK 26 AUDIO
    TITLE "3:cjc152_1173"
    INDEX 01 00:42:08
  TRACK 27 AUDIO
    TITLE "0:"
    INDEX 01 00:45:28
  TRACK 28 AUDIO
    TITLE "3:cjc152_1174"
    INDEX 01 00:46:19
  TRACK 29 AUDIO
    TITLE "0:"
    INDEX 01 00:50:31
  TRACK 30 AUDIO
    TITLE "3:cjc152_1175"
    INDEX 01 00:52:14
  TRACK 31 AUDIO
    TITLE "0:"
    INDEX 01 00:53:68
  TRACK 32 AUDIO
    TITLE "3:cjc152_1176"
    INDEX 01 00:54:64
  TRACK 33 AUDIO
    TITLE "0:"
    INDEX 01 00:57:03
  TRACK 34 AUDIO
    TITLE "3:cjc152_1177"
    INDEX 01 00:58:66
  TRACK 35 AUDIO
    TITLE "0:"
    INDEX 01 01:00:25
  TRACK 36 AUDIO
    TITLE "3:cjc152_1178"
    INDEX 01 01:01:19
  TRACK 37 AUDIO
    TITLE "0:"
    INDEX 01 01:03:63
  TRACK 38 AUDIO
    TITLE "3:cjc152_1179"
    INDEX 01 01:05:64
  TRACK 39 AUDIO
    TITLE "0:"
    INDEX 01 01:07:53
  TRACK 40 AUDIO
    TITLE "3:cjc152_1180"
    INDEX 01 01:08:46
  TRACK 41 AUDIO
    TITLE "0:"
    INDEX 01 01:10:26
  TRACK 42 AUDIO
    TITLE "3:cjc152_1181"
    INDEX 01 01:12:11
  TRACK 43 AUDIO
    TITLE "0:"
    INDEX 01 01:13:47
  TRACK 44 AUDIO
    TITLE "3:cjc152_1182"
    INDEX 01 01:14:41
  TRACK 45 AUDIO
    TITLE "0:"
    INDEX 01 01:16:24
  TRACK 46 AUDIO
    TITLE "3:cjc152_1183"
    INDEX 01 01:18:07
  TRACK 47 AUDIO
    TITLE "0:"
    INDEX 01 01:20:22
  TRACK 48 AUDIO
    TITLE "3:cjc152_1184"
    INDEX 01 01:21:16
  TRACK 49 AUDIO
    TITLE "0:"
    INDEX 01 01:24:18
  TRACK 50 AUDIO
    TITLE "3:cjc152_1185"
    INDEX 01 01:26:01
  TRACK 51 AUDIO
    TITLE "0:"
    INDEX 01 01:28:24
  TRACK 52 AUDIO
    TITLE "3:cjc152_1186"
    INDEX 01 01:29:09
  TRACK 53 AUDIO
    TITLE "0:"
    INDEX 01 01:31:38
  TRACK 54 AUDIO
    TITLE "3:cjc152_1187"
    INDEX 01 01:33:19
  TRACK 55 AUDIO
    TITLE "0:"
    INDEX 01 01:35:35
  TRACK 56 AUDIO
    TITLE "3:cjc152_1188"
    INDEX 01 01:36:29
  TRACK 57 AUDIO
    TITLE "0:"
    INDEX 01 01:39:27
  TRACK 58 AUDIO
    TITLE "3:cjc152_1189"
    INDEX 01 01:41:10
  TRACK 59 AUDIO
    TITLE "0:"
    INDEX 01 01:43:17
  TRACK 60 AUDIO
    TITLE "3:cjc152_1190"
    INDEX 01 01:44:09
  TRACK 61 AUDIO
    TITLE "0:"
    INDEX 01 01:46:02
  TRACK 62 AUDIO
    TITLE "3:cjc152_1191"
    INDEX 01 01:47:62
  TRACK 63 AUDIO
    TITLE "0:"
    INDEX 01 01:50:06
  TRACK 64 AUDIO
    TITLE "3:cjc152_1192"
    INDEX 01 01:50:74
  TRACK 65 AUDIO
    TITLE "0:"
    INDEX 01 01:53:69
  TRACK 66 AUDIO
    TITLE "3:cjc152_1193"
    INDEX 01 01:55:62
  TRACK 67 AUDIO
    TITLE "0:"
    INDEX 01 01:57:66
  TRACK 68 AUDIO
    TITLE "3:cjc152_1194"
    INDEX 01 01:58:60
  TRACK 69 AUDIO
    TITLE "0:"
    INDEX 01 02:01:19
  TRACK 70 AUDIO
    TITLE "3:cjc152_1195"
    INDEX 01 02:03:04
  TRACK 71 AUDIO
    TITLE "0:"
    INDEX 01 02:05:13
  TRACK 72 AUDIO
    TITLE "3:cjc152_1196"
    INDEX 01 02:06:06
  TRACK 73 AUDIO
    TITLE "0:"
    INDEX 01 02:08:58
  TRACK 74 AUDIO
    TITLE "3:cjc152_1197"
    INDEX 01 02:10:42
  TRACK 75 AUDIO
    TITLE "0:"
    INDEX 01 02:12:27
  TRACK 76 AUDIO
    TITLE "3:cjc152_1198"
    INDEX 01 02:13:18
  TRACK 77 AUDIO
    TITLE "0:"
    INDEX 01 02:16:01
  TRACK 78 AUDIO
    TITLE "3:cjc152_1199"
    INDEX 01 02:17:59
  TRACK 79 AUDIO
    TITLE "0:"
    INDEX 01 02:20:48
  TRACK 80 AUDIO
    TITLE "3:cjc152_1200"
    INDEX 01 02:21:39
  TRACK 81 AUDIO
    TITLE "0:"
    INDEX 01 02:24:16
  TRACK 82 AUDIO
    TITLE "3:cjc152_1201"
    INDEX 01 02:26:03
  TRACK 83 AUDIO
    TITLE "0:"
    INDEX 01 02:28:43
  TRACK 84 AUDIO
    TITLE "3:cjc152_1202"
    INDEX 01 02:29:37
  TRACK 85 AUDIO
    TITLE "0:"
    INDEX 01 02:32:24
  TRACK 86 AUDIO
    TITLE "3:cjc152_1203"
    INDEX 01 02:34:18
  TRACK 87 AUDIO
    TITLE "0:"
    INDEX 01 02:36:17
  TRACK 88 AUDIO
    TITLE "3:cjc152_1204"
    INDEX 01 02:37:17
  TRACK 89 AUDIO
    TITLE "0:"
    INDEX 01 02:39:31
  TRACK 90 AUDIO
    TITLE "3:cjc152_1205"
    INDEX 01 02:41:17
  TRACK 91 AUDIO
    TITLE "0:"
    INDEX 01 02:43:14
  TRACK 92 AUDIO
    TITLE "3:cjc152_1206"
    INDEX 01 02:44:13
  TRACK 93 AUDIO
    TITLE "0:"
    INDEX 01 02:46:43
  TRACK 94 AUDIO
    TITLE "3:cjc152_1207"
    INDEX 01 02:48:26
  TRACK 95 AUDIO
    TITLE "0:"
    INDEX 01 02:50:51
  TRACK 96 AUDIO
    TITLE "3:cjc152_1208"
    INDEX 01 02:51:44
  TRACK 97 AUDIO
    TITLE "0:"
    INDEX 01 02:54:33
  TRACK 98 AUDIO
    TITLE "3:cjc152_1209"
    INDEX 01 02:56:16
  TRACK 99 AUDIO
    TITLE "0:"
    INDEX 01 02:58:48
  TRACK 100 AUDIO
    TITLE "3:cjc152_1210"
    INDEX 01 02:59:40
  TRACK 101 AUDIO
    TITLE "0:"
    INDEX 01 03:01:39
  TRACK 102 AUDIO
    TITLE "3:cjc152_1211"
    INDEX 01 03:03:22
  TRACK 103 AUDIO
    TITLE "0:"
    INDEX 01 03:06:56
  TRACK 104 AUDIO
    TITLE "3:cjc152_1212"
    INDEX 01 03:07:53
  TRACK 105 AUDIO
    TITLE "0:"
    INDEX 01 03:10:54
  TRACK 106 AUDIO
    TITLE "3:cjc152_1213"
    INDEX 01 03:12:39
  TRACK 107 AUDIO
    TITLE "0:"
    INDEX 01 03:14:59
  TRACK 108 AUDIO
    TITLE "3:cjc152_1214"
    INDEX 01 03:15:53
  TRACK 109 AUDIO
    TITLE "0:"
    INDEX 01 03:19:03
  TRACK 110 AUDIO
    TITLE "3:cjc152_1215"
    INDEX 01 03:20:60
  TRACK 111 AUDIO
    TITLE "0:"
    INDEX 01 03:22:25
  TRACK 112 AUDIO
    TITLE "3:cjc152_1216"
    INDEX 01 03:23:17
  TRACK 113 AUDIO
    TITLE "0:"
    INDEX 01 03:24:73
  TRACK 114 AUDIO
    TITLE "3:cjc152_1217"
    INDEX 01 03:26:56
  TRACK 115 AUDIO
    TITLE "0:"
    INDEX 01 03:28:06
  TRACK 116 AUDIO
    TITLE "3:cjc152_1218"
    INDEX 01 03:29:00
  TRACK 117 AUDIO
    TITLE "0:"
    INDEX 01 03:31:63
  TRACK 118 AUDIO
    TITLE "3:cjc152_1219"
    INDEX 01 03:33:45
  TRACK 119 AUDIO
    TITLE "0:"
    INDEX 01 03:35:32
  TRACK 120 AUDIO
    TITLE "3:cjc152_1220"
    INDEX 01 03:36:25
  TRACK 121 AUDIO
    TITLE "0:"
    INDEX 01 03:38:03
  TRACK 122 AUDIO
    TITLE "3:cjc152_1221"
    INDEX 01 03:39:61
  TRACK 123 AUDIO
    TITLE "0:"
    INDEX 01 03:41:56
  TRACK 124 AUDIO
    TITLE "3:cjc152_1222"
    INDEX 01 03:42:57
  TRACK 125 AUDIO
    TITLE "0:"
    INDEX 01 03:44:35
  TRACK 126 AUDIO
    TITLE "3:cjc152_1223"
    INDEX 01 03:46:18
  TRACK 127 AUDIO
    TITLE "0:"
    INDEX 01 03:47:70
  TRACK 128 AUDIO
    TITLE "3:cjc152_1224"
    INDEX 01 03:48:62
  TRACK 129 AUDIO
    TITLE "0:"
    INDEX 01 03:51:02
  TRACK 130 AUDIO
    TITLE "3:cjc152_1225"
    INDEX 01 03:52:56
  TRACK 131 AUDIO
    TITLE "0:"
    INDEX 01 03:54:45
  TRACK 132 AUDIO
    TITLE "3:cjc152_1226"
    INDEX 01 03:55:39
  TRACK 133 AUDIO
    TITLE "0:"
    INDEX 01 03:57:08
  TRACK 134 AUDIO
    TITLE "3:cjc152_1227"
    INDEX 01 03:59:13
  TRACK 135 AUDIO
    TITLE "0:"
    INDEX 01 04:00:53
  TRACK 136 AUDIO
    TITLE "3:cjc152_1228"
    INDEX 01 04:01:57
  TRACK 137 AUDIO
    TITLE "0:"
    INDEX 01 04:04:36
  TRACK 138 AUDIO
    TITLE "3:cjc152_1229"
    INDEX 01 04:06:19
  TRACK 139 AUDIO
    TITLE "0:"
    INDEX 01 04:09:07
  TRACK 140 AUDIO
    TITLE "3:cjc152_1230"
    INDEX 01 04:10:01
  TRACK 141 AUDIO
    TITLE "0:"
    INDEX 01 04:13:58
  TRACK 142 AUDIO
    TITLE "3:cjc152_1231"
    INDEX 01 04:15:41
  TRACK 143 AUDIO
    TITLE "0:"
    INDEX 01 04:17:48
  TRACK 144 AUDIO
    TITLE "3:cjc152_1232"
    INDEX 01 04:18:42
  TRACK 145 AUDIO
    TITLE "0:"
    INDEX 01 04:20:50
  TRACK 146 AUDIO
    TITLE "3:cjc152_1233"
    INDEX 01 04:22:35
  TRACK 147 AUDIO
    TITLE "0:"
    INDEX 01 04:24:58
  TRACK 148 AUDIO
    TITLE "3:cjc152_1234"
    INDEX 01 04:25:49
  TRACK 149 AUDIO
    TITLE "0:"
    INDEX 01 04:27:74
  TRACK 150 AUDIO
    TITLE "3:cjc152_1235"
    INDEX 01 04:29:59
  TRACK 151 AUDIO
    TITLE "0:"
    INDEX 01 04:33:23
  TRACK 152 AUDIO
    TITLE "3:cjc152_1236"
    INDEX 01 04:34:17
  TRACK 153 AUDIO
    TITLE "0:"
    INDEX 01 04:37:25
  TRACK 154 AUDIO
    TITLE "3:cjc152_1237"
    INDEX 01 04:39:08
  TRACK 155 AUDIO
    TITLE "0:"
    INDEX 01 04:41:19
  TRACK 156 AUDIO
    TITLE "3:cjc152_1238"
    INDEX 01 04:42:15
  TRACK 157 AUDIO
    TITLE "0:"
    INDEX 01 04:44:39
  TRACK 158 AUDIO
    TITLE "3:cjc152_1239"
    INDEX 01 04:46:22
  TRACK 159 AUDIO
    TITLE "0:"
    INDEX 01 04:47:39
  TRACK 160 AUDIO
    TITLE "3:cjc152_1240"
    INDEX 01 04:48:33
  TRACK 161 AUDIO
    TITLE "0:"
    INDEX 01 04:50:12
  TRACK 162 AUDIO
    TITLE "3:cjc152_1241"
    INDEX 01 04:51:70
  TRACK 163 AUDIO
    TITLE "0:"
    INDEX 01 04:53:50
  TRACK 164 AUDIO
    TITLE "3:cjc152_1242"
    INDEX 01 04:54:39
  TRACK 165 AUDIO
    TITLE "0:"
    INDEX 01 04:56:28
  TRACK 166 AUDIO
    TITLE "3:cjc152_1243"
    INDEX 01 04:58:14
  TRACK 167 AUDIO
    TITLE "0:"
    INDEX 01 05:00:32
  TRACK 168 AUDIO
    TITLE "3:cjc152_1244"
    INDEX 01 05:01:33
  TRACK 169 AUDIO
    TITLE "0:"
    INDEX 01 05:04:40
  TRACK 170 AUDIO
    TITLE "3:cjc152_1245"
    INDEX 01 05:06:19
  TRACK 171 AUDIO
    TITLE "0:"
    INDEX 01 05:09:35
  TRACK 172 AUDIO
    TITLE "3:cjc152_1246"
    INDEX 01 05:10:29
  TRACK 173 AUDIO
    TITLE "0:"
    INDEX 01 05:13:45
  TRACK 174 AUDIO
    TITLE "3:cjc152_1247"
    INDEX 01 05:15:26
  TRACK 175 AUDIO
    TITLE "0:"
    INDEX 01 05:16:70
  TRACK 176 AUDIO
    TITLE "3:cjc152_1248"
    INDEX 01 05:17:64
  TRACK 177 AUDIO
    TITLE "0:"
    INDEX 01 05:19:33
  TRACK 178 AUDIO
    TITLE "3:cjc152_1249"
    INDEX 01 05:21:19
  TRACK 179 AUDIO
    TITLE "0:"
    INDEX 01 05:22:51
  TRACK 180 AUDIO
    TITLE "3:cjc152_1250"
    INDEX 01 05:23:45
  TRACK 181 AUDIO
    TITLE "0:"
    INDEX 01 05:26:33
